# xmcd CD database file
#
# Track frame offsets:
#	182
#	9182
#	25027
#	37927
#	49497
#	62680
#	80182
#	93657
#	104402
#	123335
#
# Disc length: 1813 seconds
#
# Revision: 3
# Processed by: cddbd v1.5.2PL0 Copyright (c) Steve Scherf et al.
# Submitted via: jetAudio 7
#
DISCID=7b07130a
DTITLE=The Statler Brothers - Christmas With The Statler Brothers
DYEAR=1993
DGENRE=Christmas
TTITLE0=Christmas Country Style
TTITLE1=An Old Fashioned Christmas
TTITLE2=No Reservation At The Inn
TTITLE3=Old Toy Trains
TTITLE4=I Believe In Santa's Cause
TTITLE5=I'll Be Home For Christmas
TTITLE6=Jingle Bells
TTITLE7=White Christmas
TTITLE8=Christmas To Me
TTITLE9=Away In A Manger
EXTD=
EXTT0=
EXTT1=
EXTT2=
EXTT3=
EXTT4=
EXTT5=
EXTT6=
EXTT7=
EXTT8=
EXTT9=
PLAYORDER=
